<?xml version="1.0" encoding="utf-8"?>
<!-- Generator: Adobe Illustrator 26.3.1, SVG Export Plug-In . SVG Version: 6.00 Build 0)  -->
<svg version="1.1" id="Layer_1" xmlns="http://www.w3.org/2000/svg" xmlns:xlink="http://www.w3.org/1999/xlink" x="0px" y="0px"
	 viewBox="0 0 208.2 174" style="enable-background:new 0 0 208.2 174;" xml:space="preserve">
<style type="text/css">
	.st0{fill:#99CB16;}
	.st1{fill:#256319;}
	.st2{fill:#0055A4;}
	.st3{fill:#F2F2F2;}
	.st4{fill:#EF4135;}
	.st5{fill:#4D4D4D;}
</style>
<polygon class="st0" points="141.3,56.6 162.2,2.6 154.4,2.6 149.7,2.6 123.9,2.6 123.9,15.4 144.7,15.4 123.8,69.5 131.8,69.5 
	136.3,69.5 162.9,69.5 167,63.1 162.9,56.6 "/>
<path class="st0" d="M68.7,41.4L68.7,41.4C68.7,41.4,68.7,41.4,68.7,41.4L68.7,41.4v-13H35.5v13h20C53,50.1,45.1,56.5,35.7,56.5
	c-11.3,0-20.5-9.2-20.5-20.5s9.2-20.5,20.5-20.5c6.1,0,11.7,2.7,15.4,7l7.4-2.1l1.9-6.9C54.3,6.7,45.5,2.5,35.7,2.5
	C17.2,2.5,2.2,17.5,2.2,36c0,18.5,15,33.5,33.5,33.5C52.3,69.5,66.1,57.3,68.7,41.4L68.7,41.4z"/>
<path class="st0" d="M97.3,2.5H85.1h-0.7l-26,67h12.8l5-12.8h29.9l5,12.8h12.8l-26-67H97.3z M81.3,43.7l9.9-25.5l9.9,25.5H81.3z"/>
<path class="st1" d="M149.1,136.7h12.4l-10.7-31.2c5.5-3.4,9.2-9.6,9.2-16.5c0-10.7-8.7-19.5-19.5-19.5h-22.9v0l-0.2,0v67.1h12.9
	v-28.1h9L149.1,136.7z M130.4,82.1h10.1v0c3.8,0,6.9,3.1,6.9,6.9c0,3.8-3.1,6.9-6.9,6.9v0h-10.1V82.1z"/>
<polygon class="st1" points="84.1,95.9 84.1,82.1 111.3,82.1 114,76.2 111.2,69.5 83.3,69.5 81.1,69.5 71.2,69.5 71.2,136.5 
	84.1,136.5 84.1,136.5 111.3,136.5 114,130.3 111.2,123.9 84.1,123.9 84.1,108.4 109.1,108.4 109.1,95.9 "/>
<polygon class="st1" points="38.5,121.2 18.5,69.5 6,69.5 31.9,136.5 32.6,136.5 44.5,136.5 45.1,136.5 71.1,69.5 58.5,69.5 "/>
<path class="st1" d="M201.2,69.5l-48.1,0.1c4.5,2.9,7.9,7.3,9.5,12.5l9.1,0v54.6h12.9V82l16.6,0l2.9-6.2L201.2,69.5z"/>
<rect x="6" y="143.2" class="st2" width="66.1" height="5.4"/>
<rect x="72" y="143.2" class="st3" width="66.1" height="5.4"/>
<rect x="138.1" y="143.2" class="st4" width="66.1" height="5.4"/>
<path class="st1" d="M171.2,42.7L204,2.6C183.9,4.6,169.2,22.5,171.2,42.7z"/>
<path class="st0" d="M204,2.6l-32.8,40.1l0,0C191.4,40.6,206,22.7,204,2.6L204,2.6z"/>
<g>
	<g>
		<path class="st5" d="M43.2,166c0.1,0.2,0.1,0.4,0.1,0.6c0,0.6-0.2,0.9-0.5,1c-0.7,0.3-1.5,0.4-2.4,0.4c-0.2,1-0.7,1.8-1.3,2.4
			c-0.7,0.6-1.4,0.9-2.3,0.9c-0.7,0-1.3-0.2-1.8-0.5c-0.5-0.3-0.9-0.8-1.2-1.4c-0.3-0.6-0.4-1.2-0.4-1.9c0-0.9,0.2-1.7,0.5-2.4
			c0.3-0.7,0.8-1.3,1.4-1.7c0.6-0.4,1.3-0.6,2-0.6c0.9,0,1.6,0.3,2.2,0.9c0.6,0.6,0.9,1.4,1,2.3c0.6,0,1.2-0.2,2-0.4
			c0.1,0,0.2,0,0.3,0C43,165.8,43.1,165.8,43.2,166z M37.9,169c0.3-0.3,0.5-0.8,0.6-1.3c-0.4-0.3-0.7-0.6-0.9-1
			c-0.2-0.4-0.3-0.8-0.3-1.3c0-0.2,0-0.4,0.1-0.6h-0.1c-0.5,0-0.9,0.2-1.2,0.7c-0.3,0.5-0.5,1.1-0.5,1.9c0,0.7,0.1,1.2,0.4,1.5
			c0.3,0.3,0.6,0.5,0.9,0.5C37.3,169.5,37.7,169.3,37.9,169z"/>
		<path class="st5" d="M42.5,170.4c-0.7-0.7-1-1.5-1-2.6c0-1,0.2-1.8,0.6-2.5c0.4-0.7,0.9-1.3,1.5-1.7c0.6-0.4,1.3-0.6,1.9-0.6
			c0.7,0,1.2,0.2,1.5,0.6c0.4,0.4,0.5,0.9,0.5,1.5c0,0.5-0.1,0.9-0.3,1.3c-0.2,0.3-0.5,0.5-0.9,0.5c-0.2,0-0.4-0.1-0.5-0.2
			c-0.1-0.1-0.2-0.3-0.2-0.4c0-0.1,0-0.2,0-0.3c0-0.1,0-0.2,0.1-0.2c0.1-0.2,0.1-0.3,0.1-0.5c0-0.2,0-0.3-0.1-0.4
			c-0.1-0.1-0.2-0.1-0.3-0.1c-0.3,0-0.5,0.1-0.8,0.4c-0.2,0.2-0.4,0.6-0.6,1c-0.1,0.4-0.2,0.9-0.2,1.4c0,1.4,0.6,2.1,1.8,2.1
			c0.5,0,1-0.2,1.6-0.5c0.6-0.3,1.1-0.8,1.7-1.5c0.1-0.2,0.3-0.3,0.5-0.3c0.2,0,0.3,0.1,0.4,0.2c0.1,0.1,0.1,0.3,0.1,0.6
			c0,0.5-0.1,0.8-0.3,1.1c-0.6,0.7-1.2,1.2-2,1.6c-0.8,0.4-1.5,0.6-2.3,0.6C44,171.4,43.1,171,42.5,170.4z"/>
		<path class="st5" d="M48.6,170.6c-0.4-0.5-0.7-1.2-0.7-2.1c0-1,0.2-1.9,0.7-2.7c0.4-0.9,1-1.5,1.8-2.1c0.7-0.5,1.5-0.8,2.3-0.8
			c0.3,0,0.4,0.1,0.5,0.2c0.1,0.1,0.2,0.3,0.2,0.5c0.3,0,0.5-0.1,0.8-0.1c0.6,0,0.9,0.2,0.9,0.6c0,0.3-0.1,0.8-0.3,1.8
			c-0.3,1.4-0.4,2.3-0.4,2.9c0,0.2,0,0.3,0.1,0.4c0.1,0.1,0.2,0.2,0.3,0.2c0.2,0,0.5-0.1,0.8-0.4c0.3-0.3,0.8-0.8,1.3-1.4
			c0.1-0.2,0.3-0.3,0.5-0.3c0.2,0,0.3,0.1,0.4,0.2c0.1,0.1,0.1,0.3,0.1,0.6c0,0.5-0.1,0.8-0.3,1.1c-0.5,0.6-1,1.1-1.6,1.5
			c-0.6,0.4-1.1,0.6-1.6,0.6c-0.4,0-0.8-0.1-1.1-0.4c-0.3-0.3-0.6-0.6-0.7-1.1c-0.6,1-1.4,1.5-2.4,1.5
			C49.7,171.4,49.1,171.1,48.6,170.6z M51.8,169.1c0.2-0.3,0.4-0.7,0.5-1.2l0.7-3.3c-0.5,0-1,0.2-1.4,0.6c-0.4,0.4-0.8,0.8-1,1.4
			c-0.3,0.6-0.4,1.2-0.4,1.9c0,0.4,0.1,0.6,0.2,0.8c0.1,0.2,0.4,0.3,0.6,0.3C51.3,169.6,51.6,169.4,51.8,169.1z"/>
		<path class="st5" d="M62.2,168.6c0.1,0,0.3,0.1,0.4,0.2c0.1,0.2,0.1,0.4,0.1,0.6c0,0.5-0.2,0.9-0.5,1.2c-0.6,0.5-1.3,0.8-2.1,0.8
			c-1.1,0-2-0.5-2.5-1.4c-0.5-1-0.8-2.2-0.8-3.7c0-1.5,0.2-3.1,0.6-5c0.4-1.9,0.9-3.5,1.7-4.8c0.7-1.3,1.6-2,2.6-2
			c0.6,0,1,0.3,1.4,0.8c0.3,0.5,0.5,1.3,0.5,2.3c0,1.4-0.4,3.1-1.2,5c-0.8,1.9-1.9,3.7-3.2,5.6c0.1,0.5,0.2,0.8,0.4,1.1
			s0.5,0.3,0.9,0.3c0.2,0,0.4-0.1,0.7-0.2c0.3-0.1,0.5-0.3,0.7-0.5C62,168.6,62.1,168.6,62.2,168.6z M60.3,157.7
			c-0.3,1-0.7,2.2-0.9,3.7c-0.3,1.5-0.4,2.9-0.4,4.2c0.8-1.4,1.5-2.8,2-4.2c0.5-1.4,0.8-2.7,0.8-3.9c0-0.9-0.2-1.4-0.5-1.4
			C61,156.2,60.7,156.7,60.3,157.7z"/>
		<path class="st5" d="M76.4,167.5c0.1,0.1,0.1,0.3,0.1,0.6c0,0.5-0.1,0.8-0.3,1.1c-0.4,0.5-1.1,1-1.9,1.5c-0.8,0.5-1.7,0.7-2.6,0.7
			c-1.3,0-2.2-0.3-2.9-1c-0.7-0.7-1-1.6-1-2.8c0-0.8,0.2-1.6,0.5-2.3c0.3-0.7,0.8-1.3,1.4-1.7c0.6-0.4,1.3-0.6,2.1-0.6
			c0.7,0,1.3,0.2,1.7,0.6c0.4,0.4,0.6,1,0.6,1.7c0,0.8-0.3,1.5-0.9,2.1c-0.6,0.6-1.6,1.1-3,1.4c0.3,0.6,0.9,0.8,1.7,0.8
			c0.5,0,1.2-0.2,1.8-0.6c0.7-0.4,1.3-0.9,1.8-1.5c0.1-0.2,0.3-0.3,0.5-0.3C76.2,167.3,76.3,167.3,76.4,167.5z M70.4,165.4
			c-0.3,0.5-0.5,1.1-0.5,1.9v0c0.7-0.2,1.3-0.4,1.7-0.8c0.4-0.3,0.6-0.7,0.6-1.2c0-0.2-0.1-0.4-0.2-0.5c-0.1-0.1-0.3-0.2-0.5-0.2
			C71,164.7,70.7,164.9,70.4,165.4z"/>
		<path class="st5" d="M78,164.6c0,0.6,0,1.1,0,1.4c0,0.9,0,1.5,0.1,2c0.1,0.5,0.2,0.8,0.4,1c0.2,0.2,0.5,0.3,0.9,0.3
			c0.2,0,0.4-0.1,0.7-0.2c0.3-0.1,0.5-0.3,0.7-0.5c0.1-0.1,0.3-0.2,0.4-0.2c0.1,0,0.3,0.1,0.3,0.2c0.1,0.2,0.1,0.4,0.1,0.6
			c0,0.2,0,0.4-0.1,0.7c-0.1,0.2-0.2,0.4-0.4,0.5c-0.6,0.5-1.3,0.8-2.1,0.8c-1.1,0-2-0.5-2.5-1.4c-0.5-1-0.8-2.2-0.8-3.7
			c0-0.5,0-1.1,0.1-1.6h-0.7c-0.4,0-0.6-0.1-0.7-0.2c-0.1-0.1-0.2-0.3-0.2-0.6c0-0.7,0.3-1,0.8-1h1c0.2-1.3,0.5-2.5,0.9-3.6
			c0.4-1.1,0.9-2,1.5-2.6c0.6-0.6,1.2-1,1.9-1c0.5,0,0.9,0.2,1.2,0.7c0.3,0.4,0.4,1,0.4,1.7c0,1.9-0.8,3.5-2.3,4.8h2
			c0.2,0,0.3,0,0.4,0.1c0.1,0.1,0.1,0.2,0.1,0.5c0,0.8-0.7,1.2-2,1.2H78z M79.3,158c-0.2,0.4-0.4,1.1-0.6,1.9
			c-0.2,0.8-0.4,1.7-0.5,2.6c0.7-0.6,1.2-1.3,1.6-2.1c0.4-0.8,0.5-1.5,0.5-2.1c0-0.7-0.1-1.1-0.4-1.1
			C79.7,157.3,79.5,157.6,79.3,158z"/>
		<path class="st5" d="M87.5,170.7c-0.2-0.5-0.3-1.2-0.3-2.3c0-1.6,0.2-3,0.7-4.4c0.1-0.3,0.3-0.6,0.5-0.8c0.2-0.2,0.6-0.2,1-0.2
			c0.2,0,0.4,0,0.5,0.1c0.1,0.1,0.1,0.2,0.1,0.3c0,0.2-0.1,0.6-0.3,1.3c-0.1,0.5-0.2,0.9-0.3,1.3c-0.1,0.4-0.1,0.8-0.2,1.3
			c0.4-1,0.8-1.9,1.3-2.5c0.5-0.6,1-1.1,1.4-1.4c0.5-0.3,0.9-0.4,1.3-0.4c0.8,0,1.2,0.4,1.2,1.2c0,0.2-0.1,0.5-0.2,1.1
			c-0.1,0.5-0.1,0.8-0.1,0.9c0,0.4,0.1,0.6,0.4,0.6c0.3,0,0.8-0.3,1.3-0.8c0.2-0.2,0.3-0.2,0.5-0.2c0.2,0,0.3,0.1,0.4,0.2
			c0.1,0.1,0.1,0.3,0.1,0.5c0,0.4-0.1,0.8-0.4,1c-0.3,0.3-0.7,0.6-1.2,0.9c-0.4,0.2-0.9,0.4-1.4,0.4c-0.6,0-1.1-0.2-1.4-0.5
			c-0.3-0.3-0.5-0.8-0.5-1.3c0-0.2,0-0.4,0.1-0.5c0-0.2,0-0.4,0-0.5c0-0.2-0.1-0.3-0.2-0.3c-0.2,0-0.4,0.2-0.7,0.6
			c-0.3,0.4-0.6,0.9-0.9,1.6c-0.3,0.7-0.5,1.4-0.7,2.1c-0.1,0.6-0.3,0.9-0.5,1.1c-0.2,0.2-0.4,0.3-0.8,0.3
			C88.1,171.4,87.7,171.1,87.5,170.7z"/>
		<path class="st5" d="M103.8,167.5c0.1,0.1,0.1,0.3,0.1,0.6c0,0.5-0.1,0.8-0.3,1.1c-0.4,0.5-1.1,1-1.9,1.5
			c-0.8,0.5-1.7,0.7-2.6,0.7c-1.3,0-2.2-0.3-2.9-1c-0.7-0.7-1-1.6-1-2.8c0-0.8,0.2-1.6,0.5-2.3c0.3-0.7,0.8-1.3,1.4-1.7
			c0.6-0.4,1.3-0.6,2.1-0.6c0.7,0,1.3,0.2,1.7,0.6c0.4,0.4,0.6,1,0.6,1.7c0,0.8-0.3,1.5-0.9,2.1c-0.6,0.6-1.6,1.1-3,1.4
			c0.3,0.6,0.9,0.8,1.7,0.8c0.5,0,1.2-0.2,1.8-0.6c0.7-0.4,1.3-0.9,1.8-1.5c0.1-0.2,0.3-0.3,0.5-0.3
			C103.6,167.3,103.7,167.3,103.8,167.5z M97.8,165.4c-0.3,0.5-0.5,1.1-0.5,1.9v0c0.7-0.2,1.3-0.4,1.7-0.8c0.4-0.3,0.6-0.7,0.6-1.2
			c0-0.2-0.1-0.4-0.2-0.5c-0.1-0.1-0.3-0.2-0.5-0.2C98.4,164.7,98.1,164.9,97.8,165.4z"/>
		<path class="st5" d="M102.8,170.7c-0.2-0.5-0.3-1.2-0.3-2.3c0-1.6,0.2-3,0.7-4.4c0.1-0.3,0.3-0.6,0.5-0.8c0.2-0.2,0.6-0.2,1-0.2
			c0.2,0,0.4,0,0.5,0.1c0.1,0.1,0.1,0.2,0.1,0.3c0,0.2-0.1,0.6-0.3,1.3c-0.1,0.5-0.2,0.9-0.3,1.3c-0.1,0.4-0.1,0.8-0.2,1.3
			c0.4-1,0.8-1.9,1.3-2.5c0.5-0.6,1-1.1,1.4-1.4c0.5-0.3,0.9-0.4,1.3-0.4c0.8,0,1.2,0.4,1.2,1.2c0,0.5-0.1,1.3-0.4,2.5
			c-0.2,1-0.3,1.7-0.3,2.1c0,0.5,0.2,0.7,0.5,0.7c0.2,0,0.5-0.1,0.9-0.4c0.3-0.3,0.8-0.8,1.3-1.4c0.1-0.2,0.3-0.3,0.5-0.3
			c0.2,0,0.3,0.1,0.4,0.2c0.1,0.1,0.1,0.3,0.1,0.6c0,0.5-0.1,0.8-0.3,1.1c-0.5,0.6-1.1,1.2-1.7,1.6c-0.6,0.4-1.3,0.6-2,0.6
			c-0.6,0-1.1-0.2-1.4-0.5c-0.3-0.4-0.5-0.9-0.5-1.5c0-0.3,0.1-0.9,0.3-1.8c0.2-0.8,0.2-1.3,0.2-1.6c0-0.2-0.1-0.3-0.2-0.3
			c-0.2,0-0.4,0.2-0.7,0.6c-0.3,0.4-0.6,0.9-0.9,1.6c-0.3,0.7-0.5,1.4-0.7,2.1c-0.1,0.6-0.3,0.9-0.5,1.1c-0.2,0.2-0.4,0.3-0.8,0.3
			C103.3,171.4,103,171.1,102.8,170.7z"/>
		<path class="st5" d="M120.9,166c0.1,0.2,0.1,0.4,0.1,0.6c0,0.6-0.2,0.9-0.5,1c-0.7,0.3-1.5,0.4-2.4,0.4c-0.2,1-0.7,1.8-1.3,2.4
			c-0.7,0.6-1.4,0.9-2.3,0.9c-0.7,0-1.3-0.2-1.8-0.5c-0.5-0.3-0.9-0.8-1.2-1.4c-0.3-0.6-0.4-1.2-0.4-1.9c0-0.9,0.2-1.7,0.5-2.4
			c0.3-0.7,0.8-1.3,1.4-1.7c0.6-0.4,1.3-0.6,2-0.6c0.9,0,1.6,0.3,2.2,0.9c0.6,0.6,0.9,1.4,1,2.3c0.6,0,1.2-0.2,2-0.4
			c0.1,0,0.2,0,0.3,0C120.7,165.8,120.8,165.8,120.9,166z M115.6,169c0.3-0.3,0.5-0.8,0.6-1.3c-0.4-0.3-0.7-0.6-0.9-1
			c-0.2-0.4-0.3-0.8-0.3-1.3c0-0.2,0-0.4,0.1-0.6H115c-0.5,0-0.9,0.2-1.2,0.7c-0.3,0.5-0.5,1.1-0.5,1.9c0,0.7,0.1,1.2,0.4,1.5
			c0.3,0.3,0.6,0.5,0.9,0.5C115,169.5,115.3,169.3,115.6,169z"/>
		<path class="st5" d="M120,170.6c-0.3-0.5-0.5-1.1-0.5-1.9c0-0.9,0.1-1.7,0.2-2.5c0.1-0.7,0.3-1.5,0.6-2.4c0.1-0.4,0.3-0.6,0.5-0.8
			c0.2-0.2,0.6-0.2,1-0.2c0.3,0,0.4,0,0.5,0.1c0.1,0.1,0.2,0.2,0.2,0.4c0,0.1-0.1,0.4-0.2,1c-0.1,0.4-0.2,0.8-0.3,1.2
			c-0.2,1.3-0.4,2.1-0.4,2.5c0,0.3,0,0.4,0.1,0.5c0.1,0.1,0.2,0.2,0.3,0.2c0.2,0,0.4-0.2,0.7-0.5c0.3-0.4,0.6-0.9,0.9-1.6
			c0.3-0.7,0.6-1.6,0.9-2.7c0.1-0.4,0.2-0.6,0.4-0.8c0.2-0.2,0.5-0.2,0.9-0.2c0.3,0,0.5,0,0.6,0.1c0.1,0.1,0.2,0.2,0.2,0.4
			c0,0.3-0.1,1.1-0.4,2.5c-0.3,1.5-0.5,2.5-0.5,2.8c0,0.2,0,0.4,0.1,0.5c0.1,0.1,0.2,0.2,0.4,0.2c0.2,0,0.5-0.1,0.9-0.4
			c0.3-0.3,0.8-0.8,1.3-1.4c0.1-0.2,0.3-0.3,0.5-0.3c0.2,0,0.3,0.1,0.4,0.2s0.1,0.3,0.1,0.6c0,0.5-0.1,0.8-0.3,1.1
			c-0.5,0.6-1.1,1.2-1.7,1.6c-0.6,0.4-1.3,0.6-2,0.6c-0.6,0-1-0.2-1.3-0.7c-0.3-0.4-0.4-1.1-0.4-1.9c-0.2,0.8-0.5,1.4-0.9,1.9
			c-0.4,0.4-0.8,0.7-1.3,0.7C120.7,171.4,120.3,171.1,120,170.6z"/>
		<path class="st5" d="M137,165.8c0.2,0,0.3,0.1,0.4,0.2c0.1,0.1,0.1,0.3,0.1,0.5c0,0.4-0.1,0.7-0.2,0.9c-0.1,0.2-0.4,0.4-0.6,0.5
			c-0.6,0.2-1.1,0.3-1.8,0.3c-0.5,0-1-0.1-1.5-0.2c-0.3,0.6-0.7,1.1-1.1,1.7c-0.5,0.7-0.9,1.1-1.2,1.4c-0.3,0.3-0.7,0.4-1.2,0.4
			c-0.5,0-0.9-0.2-1.2-0.6c-0.3-0.4-0.5-1-0.5-1.8c-0.1-1.7-0.2-3.1-0.2-4.4V164c0-0.4,0.1-0.7,0.3-0.8c0.2-0.2,0.5-0.2,0.9-0.2
			c0.3,0,0.5,0.1,0.7,0.2c0.1,0.1,0.2,0.4,0.2,0.7c0,1.4,0.1,3.2,0.3,5.4c0.7-1.1,1.3-1.9,1.6-2.5c-0.2-0.3-0.3-0.8-0.3-1.2
			c0-0.4,0.1-0.8,0.3-1.2c0.2-0.4,0.4-0.7,0.7-0.9c0.3-0.2,0.7-0.4,1.1-0.4c0.3,0,0.6,0.1,0.8,0.4c0.2,0.2,0.3,0.6,0.3,1.1
			c0,0.5-0.1,1.2-0.4,1.8c0.5,0,1.1-0.1,1.8-0.3l0.5-0.1C136.9,165.8,136.9,165.8,137,165.8z"/>
		<path class="st5" d="M144.4,167.5c0.1,0.1,0.1,0.3,0.1,0.6c0,0.5-0.1,0.8-0.3,1.1c-0.4,0.5-1.1,1-1.9,1.5
			c-0.8,0.5-1.7,0.7-2.6,0.7c-1.3,0-2.2-0.3-2.9-1c-0.7-0.7-1-1.6-1-2.8c0-0.8,0.2-1.6,0.5-2.3c0.3-0.7,0.8-1.3,1.4-1.7
			c0.6-0.4,1.3-0.6,2.1-0.6c0.7,0,1.3,0.2,1.7,0.6c0.4,0.4,0.6,1,0.6,1.7c0,0.8-0.3,1.5-0.9,2.1c-0.6,0.6-1.6,1.1-3,1.4
			c0.3,0.6,0.9,0.8,1.7,0.8c0.5,0,1.2-0.2,1.8-0.6c0.7-0.4,1.3-0.9,1.8-1.5c0.1-0.2,0.3-0.3,0.5-0.3
			C144.2,167.3,144.3,167.3,144.4,167.5z M138.4,165.4c-0.3,0.5-0.5,1.1-0.5,1.9v0c0.7-0.2,1.3-0.4,1.7-0.8c0.4-0.3,0.6-0.7,0.6-1.2
			c0-0.2-0.1-0.4-0.2-0.5c-0.1-0.1-0.3-0.2-0.5-0.2C139,164.7,138.7,164.9,138.4,165.4z"/>
		<path class="st5" d="M150.2,167.5c0.1,0.1,0.1,0.3,0.1,0.6c0,0.5-0.1,0.8-0.3,1.1c-0.5,0.6-1.1,1.2-1.7,1.6
			c-0.6,0.4-1.3,0.6-2.1,0.6c-1.1,0-1.8-0.5-2.3-1.4c-0.5-1-0.8-2.2-0.8-3.7c0-1.5,0.2-3.1,0.6-5c0.4-1.9,0.9-3.5,1.7-4.8
			c0.7-1.3,1.6-2,2.6-2c0.6,0,1,0.3,1.4,0.8c0.3,0.5,0.5,1.3,0.5,2.3c0,1.4-0.4,3.1-1.2,5c-0.8,1.9-1.9,3.7-3.2,5.6
			c0.1,0.5,0.2,0.8,0.4,1.1c0.2,0.2,0.4,0.3,0.8,0.3c0.5,0,0.9-0.1,1.3-0.4c0.4-0.3,0.8-0.8,1.4-1.4c0.1-0.2,0.3-0.3,0.5-0.3
			C150,167.3,150.1,167.3,150.2,167.5z M146.7,157.7c-0.3,1-0.7,2.2-0.9,3.7c-0.3,1.5-0.4,2.9-0.4,4.2c0.8-1.4,1.5-2.8,2-4.2
			c0.5-1.4,0.8-2.7,0.8-3.9c0-0.9-0.2-1.4-0.5-1.4C147.4,156.2,147.1,156.7,146.7,157.7z"/>
		<path class="st5" d="M149.1,170.6c-0.4-0.5-0.7-1.2-0.7-2.1c0-1,0.2-1.9,0.7-2.7c0.4-0.9,1-1.5,1.8-2.1c0.7-0.5,1.5-0.8,2.3-0.8
			c0.3,0,0.4,0.1,0.5,0.2c0.1,0.1,0.2,0.3,0.2,0.5c0.3,0,0.5-0.1,0.8-0.1c0.6,0,0.9,0.2,0.9,0.6c0,0.3-0.1,0.8-0.3,1.8
			c-0.3,1.4-0.4,2.3-0.4,2.9c0,0.2,0,0.3,0.1,0.4c0.1,0.1,0.2,0.2,0.3,0.2c0.2,0,0.5-0.1,0.8-0.4c0.3-0.3,0.8-0.8,1.3-1.4
			c0.1-0.2,0.3-0.3,0.5-0.3c0.2,0,0.3,0.1,0.4,0.2c0.1,0.1,0.1,0.3,0.1,0.6c0,0.5-0.1,0.8-0.3,1.1c-0.5,0.6-1,1.1-1.6,1.5
			c-0.6,0.4-1.1,0.6-1.6,0.6c-0.4,0-0.8-0.1-1.1-0.4c-0.3-0.3-0.6-0.6-0.7-1.1c-0.6,1-1.4,1.5-2.4,1.5
			C150.2,171.4,149.6,171.1,149.1,170.6z M152.3,169.1c0.2-0.3,0.4-0.7,0.5-1.2l0.7-3.3c-0.5,0-1,0.2-1.4,0.6
			c-0.4,0.4-0.8,0.8-1,1.4c-0.3,0.6-0.4,1.2-0.4,1.9c0,0.4,0.1,0.6,0.2,0.8c0.1,0.2,0.4,0.3,0.6,0.3
			C151.8,169.6,152.1,169.4,152.3,169.1z"/>
		<path class="st5" d="M167.1,166c0.1,0.2,0.1,0.4,0.1,0.6c0,0.3,0,0.5-0.1,0.7c-0.1,0.2-0.2,0.3-0.4,0.3c-0.7,0.3-1.5,0.4-2.4,0.4
			c-0.2,1-0.7,1.8-1.4,2.4c-0.7,0.6-1.4,0.9-2.2,0.9c-1.2,0-2.1-0.5-2.6-1.4c-0.6-0.9-0.8-2.3-0.8-4c0-1.5,0.2-3.2,0.6-5
			s0.9-3.4,1.7-4.6c0.7-1.3,1.6-1.9,2.6-1.9c0.6,0,1,0.2,1.3,0.7c0.3,0.5,0.5,1.1,0.5,1.8c0,1-0.2,2-0.6,2.9c-0.4,1-1,2-1.8,3.1
			c0.8,0.1,1.5,0.4,2,1c0.5,0.6,0.8,1.3,0.9,2.2c0.6,0,1.2-0.2,2-0.4c0.1,0,0.2,0,0.3,0C166.9,165.8,167,165.8,167.1,166z
			 M161.8,169c0.3-0.3,0.5-0.8,0.6-1.3c-0.4-0.3-0.7-0.6-0.9-1c-0.2-0.4-0.3-0.8-0.3-1.3c0-0.2,0-0.4,0.1-0.7h-0.1
			c-0.5,0-0.9,0.2-1.2,0.7c-0.3,0.5-0.5,1.1-0.5,1.9c0,0.7,0.1,1.2,0.4,1.6c0.3,0.4,0.6,0.5,0.9,0.5
			C161.2,169.5,161.5,169.3,161.8,169z M161,157.3c-0.3,0.7-0.5,1.7-0.8,2.9c-0.2,1.2-0.4,2.6-0.5,4c0.8-1.4,1.4-2.7,1.9-3.8
			c0.5-1.1,0.7-2.1,0.7-3c0-0.4,0-0.7-0.1-0.9c-0.1-0.2-0.2-0.3-0.4-0.3C161.5,156.2,161.3,156.5,161,157.3z"/>
		<path class="st5" d="M172.8,167.5c0.1,0.1,0.1,0.3,0.1,0.6c0,0.5-0.1,0.8-0.3,1.1c-0.5,0.6-1.1,1.2-1.7,1.6
			c-0.6,0.4-1.3,0.6-2.1,0.6c-1.1,0-1.8-0.5-2.3-1.4c-0.5-1-0.8-2.2-0.8-3.7c0-1.5,0.2-3.1,0.6-5c0.4-1.9,0.9-3.5,1.7-4.8
			c0.7-1.3,1.6-2,2.6-2c0.6,0,1,0.3,1.4,0.8c0.3,0.5,0.5,1.3,0.5,2.3c0,1.4-0.4,3.1-1.2,5c-0.8,1.9-1.9,3.7-3.2,5.6
			c0.1,0.5,0.2,0.8,0.4,1.1c0.2,0.2,0.4,0.3,0.8,0.3c0.5,0,0.9-0.1,1.3-0.4c0.4-0.3,0.8-0.8,1.4-1.4c0.1-0.2,0.3-0.3,0.5-0.3
			C172.6,167.3,172.7,167.3,172.8,167.5z M169.3,157.7c-0.3,1-0.7,2.2-0.9,3.7c-0.3,1.5-0.4,2.9-0.4,4.2c0.8-1.4,1.5-2.8,2-4.2
			c0.5-1.4,0.8-2.7,0.8-3.9c0-0.9-0.2-1.4-0.5-1.4C170,156.2,169.7,156.7,169.3,157.7z"/>
		<path class="st5" d="M178.3,168c0.1,0.1,0.1,0.3,0.1,0.6c0,0.4-0.1,0.8-0.3,1.1c-0.3,0.5-0.8,0.9-1.3,1.2
			c-0.5,0.3-1.2,0.4-1.9,0.4c-1.1,0-2-0.3-2.7-1c-0.6-0.7-1-1.6-1-2.8c0-0.8,0.2-1.6,0.5-2.3c0.3-0.7,0.8-1.3,1.4-1.7
			c0.6-0.4,1.3-0.6,2.1-0.6c0.7,0,1.3,0.2,1.7,0.6c0.4,0.4,0.6,1,0.6,1.7c0,0.8-0.3,1.5-0.9,2.1c-0.6,0.6-1.6,1.1-3,1.4
			c0.3,0.6,0.8,0.8,1.5,0.8c0.5,0,0.9-0.1,1.2-0.3c0.3-0.2,0.7-0.6,1.1-1.1c0.1-0.2,0.3-0.3,0.5-0.3
			C178.1,167.8,178.2,167.9,178.3,168z M173.9,165.4c-0.3,0.5-0.5,1.1-0.5,1.9v0c0.7-0.2,1.3-0.4,1.7-0.8c0.4-0.3,0.6-0.7,0.6-1.2
			c0-0.2-0.1-0.4-0.2-0.5c-0.1-0.1-0.3-0.2-0.5-0.2C174.5,164.7,174.2,164.9,173.9,165.4z"/>
	</g>
	<g>
		<path class="st5" d="M24.6,171.2c-0.2-0.2-0.3-0.4-0.3-0.7c0-0.3,0.1-1,0.2-2c0.1-1,0.3-2,0.4-2.9c0-0.2,0.1-0.4,0.1-0.8l0.4-2.6
			c0.3-2,0.6-3.7,0.7-5c0-0.4,0.2-0.8,0.4-1c0.2-0.2,0.6-0.3,1-0.3c0.8,0,1.1,0.4,1.1,1.1c0,0.3,0,0.7-0.1,1.3
			c-0.1,0.6-0.2,1.3-0.3,1.9c-0.2,1.3-0.3,2-0.3,2.1l-0.4,2.4c-0.3,1.9-0.5,3.4-0.6,4.3c1.4-0.1,3.4-0.1,6-0.1
			c0.3,0,0.6,0.1,0.7,0.2c0.2,0.1,0.3,0.4,0.3,0.8c0,0.4-0.1,0.7-0.3,0.9c-0.2,0.2-0.5,0.4-0.9,0.4c-1.5,0-2.7,0-3.7,0
			c-1,0-2.1,0.1-3.5,0.1C25.1,171.4,24.8,171.3,24.6,171.2z"/>
	</g>
</g>
</svg>
