<?xml version="1.0" encoding="utf-8"?>
<!-- Generator: Adobe Illustrator 26.0.3, SVG Export Plug-In . SVG Version: 6.00 Build 0)  -->
<svg version="1.1" id="Calque_1" xmlns="http://www.w3.org/2000/svg" xmlns:xlink="http://www.w3.org/1999/xlink" x="0px" y="0px"
	 viewBox="0 0 260 57" style="enable-background:new 0 0 260 57;" xml:space="preserve">
<style type="text/css">
	.st0{fill:#5FC4E1;}
</style>
<g>
	<path class="st0" d="M194.5,32.8c0-13.4-7.6-20.4-18.8-20.4c-10.3,0-16.7,5.1-18.4,15.4c0,0.3-0.1,0.5-0.1,0.8c0,0,0,0.1,0,0.1
		c-0.2,1.3-0.3,2.7-0.3,4.1c0,0.1,0,0.3,0,0.4c0,0.1,0,0.3,0,0.4c0,1.4,0.1,2.8,0.3,4.1c0,0,0,0.1,0,0.1c0,0.3,0.1,0.5,0.1,0.8
		c1.7,10.3,8.1,15.4,18.4,15.4c11.2,0,18.8-7.1,18.8-20.4c0-0.1,0-0.3,0-0.4C194.4,33.1,194.5,32.9,194.5,32.8z M184.8,40.1
		c-1.5,4.4-4.5,6.7-9.1,6.7c-6.3,0-10-4.9-10.1-13.6c0.1-8.7,3.8-13.6,10.1-13.6c4.5,0,7.6,2.4,9.1,6.7c0,0,0,0,0,0
		c0.6,1.9,1,4.2,1,6.8C185.7,35.8,185.4,38.1,184.8,40.1C184.8,40,184.8,40.1,184.8,40.1z"/>
	<path class="st0" d="M223.3,13.3c-1.9,0-3.3,0.2-4.3,0.8L212.1,36c-0.2,0.6-0.3,1.2-0.5,1.7c-2.6-1.6-11.4-23.6-11.4-23.6l0-0.1
		c-0.9-0.5-2.3-0.8-4.4-0.8c-2.2,0-3.7,0.3-4.4,0.8l12.9,38.4c1.2,0.3,3.1,0.6,5.1,0.6c2,0,3.9-0.2,5.1-0.6l13-38.4
		C226.6,13.6,225.4,13.3,223.3,13.3z"/>
	<path class="st0" d="M30.2,45c0-0.1,0-0.1,0-0.2c0,0-0.2,0.2-0.5,0.4c-2.3,0.8-5.2,1.4-8.2,1.4c-2.3,0-4.4-0.4-6.1-1.1
		C11.9,44,9.6,41,8.9,36.3c0,0,0,0,0,0c-0.1-0.5-0.1-0.9-0.2-1.4c0-0.3,0-0.6,0-0.8c0-0.3,0-0.5,0-0.8c0-0.3,0-0.5,0-0.8
		c0-0.3,0-0.6,0-0.8c0-0.5,0.1-1,0.2-1.4c0,0,0,0,0,0c0.7-4.7,3-7.7,6.5-9.2c1.8-0.8,3.9-1.1,6.1-1.1c3,0,5.9,0.6,8.2,1.4
		c0.3,0.2,0.5,0.4,0.5,0.4c0-0.1,0-0.1,0-0.2c0.2,0.1,0.4,0.2,0.7,0.3c0.1-1.6-0.5-4-1.4-5.9c-0.2-0.6-0.5-1.2-0.8-1.7
		c-2.1-1.2-5.3-1.8-8.4-1.8c-0.2,0-0.3,0-0.5,0c-0.3,0-0.5,0-0.8,0C7,12.4,0,20,0,32.6c0,0.2,0,0.4,0,0.6c0,0.2,0,0.4,0,0.6
		c0,12.7,7,20.3,18.9,20.3c0.3,0,0.5,0,0.8,0c0.2,0,0.3,0,0.5,0c3.2,0,6.4-0.6,8.4-1.8c0.3-0.5,0.6-1,0.8-1.7
		c0.9-1.9,1.5-4.3,1.4-5.9C30.6,44.8,30.4,44.9,30.2,45z"/>
	<path class="st0" d="M246.4,46.7c-8.2,0-13-3.6-13.4-10.7h26c0.7-2.1,1-4.6,1-7c0-9.9-5.2-16.7-16.1-16.7
		c-12.2,0-19.6,8.6-19.6,21.3c0,12.5,7.2,20.4,20.5,20.4c5.4,0,9.7-1.3,12.2-2.8c1.5-1.6,2.5-5,2.3-7.6
		C256.3,45.2,251.4,46.7,246.4,46.7z M251.3,29.1C251.3,29.1,251.3,29.1,251.3,29.1l-18,0c0.4-5.5,1.8-9.4,9.1-9.5
		C251.3,19.6,251.7,25.7,251.3,29.1z"/>
	<path class="st0" d="M65.9,46.9c0.1-0.2,0.2-0.3,0.3-0.5c0.2-0.3,0.3-0.5,0.5-0.8c0.1-0.2,0.2-0.4,0.3-0.5c0.3-0.5,0.5-1,0.7-1.6
		c0.1-0.2,0.2-0.4,0.2-0.6c0.1-0.3,0.2-0.6,0.3-1c0.1-0.2,0.1-0.5,0.2-0.7c0.6-2.2,1-4.8,1-7.6c0-0.1,0-0.3,0-0.4c0-0.1,0-0.3,0-0.4
		c0-2.8-0.4-5.3-1-7.6c-0.1-0.2-0.1-0.5-0.2-0.7c-0.1-0.3-0.2-0.7-0.3-1c-0.1-0.2-0.2-0.4-0.2-0.6c-0.2-0.5-0.5-1.1-0.7-1.6
		c-0.1-0.2-0.2-0.4-0.3-0.5c-0.2-0.3-0.3-0.6-0.5-0.8c-0.1-0.2-0.2-0.3-0.3-0.5c-0.3-0.5-0.7-0.9-1.1-1.4c-0.1-0.1-0.2-0.2-0.3-0.3
		c-0.2-0.2-0.4-0.4-0.7-0.7c-0.1-0.1-0.3-0.3-0.4-0.4c-0.2-0.2-0.5-0.4-0.7-0.6c-0.1-0.1-0.3-0.2-0.4-0.3c-0.4-0.3-0.9-0.6-1.4-0.9
		c-0.2-0.1-0.3-0.2-0.5-0.3c-0.3-0.1-0.5-0.3-0.8-0.4c-0.2-0.1-0.4-0.2-0.6-0.2c-0.5-0.2-1-0.4-1.5-0.6c-0.2-0.1-0.4-0.1-0.6-0.2
		c-0.3-0.1-0.6-0.2-0.9-0.2c-0.2-0.1-0.5-0.1-0.7-0.1c-0.3-0.1-0.6-0.1-0.9-0.2c0,0,0,0-0.1,0c0,0-0.1,0-0.1,0
		c-0.2,0-0.5-0.1-0.7-0.1c-0.3,0-0.7-0.1-1-0.1c0,0-0.1,0-0.1,0c-0.6,0-1.2-0.1-1.8-0.1c-10.3,0-16.7,5.1-18.4,15.4
		c0,0.3-0.1,0.5-0.1,0.8c0,0,0,0.1,0,0.1c-0.2,1.3-0.3,2.7-0.3,4.1c0,0.1,0,0.3,0,0.4c0,0.1,0,0.3,0,0.4c0,1.4,0.1,2.8,0.3,4.1
		c0,0,0,0.1,0,0.1c0,0.3,0.1,0.5,0.1,0.8c1.7,10.3,8.1,15.4,18.4,15.4c0.6,0,1.2,0,1.8-0.1c0,0,0.1,0,0.1,0c0.3,0,0.7-0.1,1-0.1
		c0.2,0,0.5,0,0.7-0.1c0,0,0.1,0,0.1,0c0,0,0,0,0.1,0c0.3,0,0.6-0.1,0.9-0.2c0.2,0,0.5-0.1,0.7-0.1c0.3-0.1,0.6-0.1,0.9-0.2
		c0.2-0.1,0.4-0.1,0.6-0.2c0.5-0.2,1-0.4,1.5-0.6c0.2-0.1,0.4-0.2,0.6-0.2c0.3-0.1,0.6-0.3,0.8-0.4c0.2-0.1,0.3-0.2,0.5-0.3
		c0.5-0.3,0.9-0.6,1.4-0.9c0.1-0.1,0.3-0.2,0.4-0.3c0.2-0.2,0.5-0.4,0.7-0.6c0.1-0.1,0.3-0.3,0.4-0.4c0.2-0.2,0.4-0.4,0.7-0.7
		c0.1-0.1,0.2-0.2,0.3-0.3C65.2,47.9,65.6,47.4,65.9,46.9z M47.5,46.3c-4.3-1.5-6.8-6-6.9-13.1c0.1-7.1,2.6-11.6,6.9-13.1
		c1-0.3,2.1-0.5,3.3-0.5c1.1,0,2.2,0.1,3.1,0.4c0.1,0,0.1,0.1,0.2,0.1c0.9,0.3,1.6,0.7,2.3,1.2c0,0,0.1,0.1,0.1,0.1
		c0.3,0.3,0.7,0.5,1,0.9c0.1,0.1,0.1,0.1,0.2,0.2c0.3,0.3,0.5,0.6,0.8,0.9c0.1,0.1,0.1,0.2,0.2,0.3c0.2,0.3,0.4,0.7,0.6,1.1
		c0,0.1,0.1,0.1,0.1,0.2c0.2,0.4,0.4,0.9,0.5,1.3c0,0,0,0,0,0c0.1,0.2,0.1,0.4,0.2,0.6c0.1,0.3,0.2,0.6,0.3,0.9
		c0,0.1,0.1,0.3,0.1,0.5c0.3,1.5,0.5,3.1,0.5,4.9c0,1.8-0.2,3.4-0.5,4.9c0,0.2-0.1,0.3-0.1,0.5c-0.1,0.3-0.2,0.6-0.3,0.9
		c-0.1,0.2-0.1,0.4-0.2,0.6c0,0,0,0,0,0c-0.2,0.5-0.3,0.9-0.5,1.3c0,0.1-0.1,0.1-0.1,0.2c-0.2,0.4-0.4,0.7-0.6,1.1
		c-0.1,0.1-0.1,0.2-0.2,0.3c-0.2,0.3-0.5,0.6-0.8,0.9c-0.1,0.1-0.1,0.1-0.2,0.2c-0.9,1-2.1,1.7-3.4,2.2c-0.1,0-0.1,0.1-0.2,0.1
		c-0.9,0.3-2,0.4-3.1,0.4C49.6,46.8,48.5,46.6,47.5,46.3z"/>
	<path class="st0" d="M135.7,30.4c-0.6-0.4-1.3-0.3-2.2,0.2c-1.6,0.9-3.5,2.6-5.7,4.4c-7.3,6.1-18.3,15.4-31.9,13
		c-4.3-0.8-7.1-4-8.8-6.4L86.5,41l0.8,0.1c11.9,1.4,20.4,0.3,25.4-3.1c4-2.8,7.2-8.3,7.6-13.5c0.2-2.7-0.2-6.5-3.3-9.4
		c-2.3-2.2-5.4-3.5-9.1-3.8c-1.4,1.5-3.2,2.9-5.3,3.6c-0.9,0.3-2.6,1.1-6.3,1.2c-1.7,0-3.6-0.1-5.3-0.4l-0.4,0.2
		c-3.7,2.1-7,4.7-9.6,7.3l-0.4,0.4l-0.3-0.8c-0.2-0.6-0.5-1.1-0.7-1.6c-0.3-0.6-0.9-1-1.8-1.1c-0.1,0-0.3,0-0.4,0
		c-2.3,0-5.4,1.6-6.8,3.4c-0.7,0.9-0.8,1.8-0.5,2.6c1.3,2.9,2.6,5.6,4.4,8l0.1,0.1l-0.1,0.2c-0.9,4.9,2.9,18.5,17,21.8
		c20.2,4,33.7-8.4,41.8-15.8c1.7-1.5,3.1-2.8,4.4-3.8C137.7,34.1,137.1,31.2,135.7,30.4z M85,30.8l0.1-0.2c1-2.4,2.7-4.8,5.3-7.2
		c5.5-5.1,11-6.6,15.8-4.2c2.4,1.2,3.8,3.1,3.9,5.4c0.1,2.9-1.9,5.9-4.9,7.5c-2.8,1.5-6.4,2.5-10.1,2.5c-2.6,0-5.1-0.5-7.5-1.7
		c-0.9-0.4-1.7-1-2.5-1.9L85,30.8z"/>
	<g>
		<path class="st0" d="M142.9,13.4c-7.3,0-11.3,3.1-13.1,6.9h-0.5l-0.5-6.1c-2.3,0-4.9,0.5-6.6,1.4v23.1c1.9-1.4,3.6-2.9,5.1-4.2
			c1.2-1,2.2-1.9,3.2-2.7v-5.1c1.5-2.7,4.3-5.2,9.1-5.2c7.2,0.1,7.8,4.4,7.8,8.3v22.6c0.9,0.5,2.3,0.7,4.2,0.7
			c1.8,0,3.3-0.2,4.2-0.7V28.1C155.9,15.4,148.9,13.4,142.9,13.4z"/>
		<path class="st0" d="M122.2,50.4v2c0.9,0.5,2.3,0.7,4.2,0.7c1.8,0,3.3-0.2,4.2-0.7v-8.5C128.1,46.1,125.3,48.3,122.2,50.4z"/>
	</g>
	<path class="st0" d="M111.3,2.6c-1.4-3.2-11-3.8-11.5,0c-0.4,3.3-3.1,7.8-7.6,6.6c-2.2-0.6-6.5-0.8-7.4,1.5
		c-0.6,1.4-0.2,2.1,1.4,3.2s6.3,2.1,10.1,2c3.8-0.1,5.4-0.9,6.3-1.2C108.6,12.8,112.4,6.1,111.3,2.6z"/>
</g>
</svg>
