<?xml version="1.0" standalone="no"?>
<!DOCTYPE svg PUBLIC "-//W3C//DTD SVG 20010904//EN"
 "http://www.w3.org/TR/2001/REC-SVG-20010904/DTD/svg10.dtd">
<svg version="1.0" xmlns="http://www.w3.org/2000/svg"
 width="128.000000pt" height="128.000000pt" viewBox="0 0 128.000000 128.000000"
 preserveAspectRatio="xMidYMid meet">
<metadata>
Created by potrace 1.14, written by Peter Selinger 2001-2017
</metadata>
<g transform="translate(0.000000,128.000000) scale(0.100000,-0.100000)"
fill="#000000" stroke="none">
<path d="M672 1148 c-12 -6 -25 -23 -29 -37 -21 -89 -82 -140 -146 -123 -41
10 -116 0 -128 -19 -21 -34 -10 -58 39 -80 l49 -22 -48 -33 c-26 -17 -62 -45
-80 -62 l-33 -30 -26 28 c-22 24 -33 28 -61 23 -63 -10 -129 -60 -129 -99 0
-13 18 -57 40 -99 33 -63 41 -88 44 -143 3 -78 34 -146 91 -205 98 -101 216
-138 425 -133 137 4 259 32 352 83 53 29 160 112 165 129 5 15 -41 34 -80 34
-18 0 -51 -11 -74 -24 -45 -26 -143 -65 -183 -73 -179 -35 -302 -12 -398 74
-44 39 -45 42 -22 43 154 7 207 18 312 61 309 127 377 413 120 503 -24 9 -46
15 -50 15 -20 -3 -21 3 -3 22 29 31 50 99 40 127 -16 44 -129 67 -187 40z
m101 -357 c60 -37 71 -90 33 -155 -40 -69 -136 -109 -257 -108 -63 1 -149 28
-165 53 -15 25 83 144 159 194 71 46 170 53 230 16z"/>
</g>
</svg>
